<svg xmlns="http://www.w3.org/2000/svg" width="464" height="464" viewBox="0 0 464 464">
  <g id="Group_2767" data-name="Group 2767" transform="translate(1222 -2497)">
    <circle id="Ellipse_54" data-name="Ellipse 54" cx="232" cy="232" r="232" transform="translate(-1222 2497)" fill="#fff"/>
    <path id="Path_3350" data-name="Path 3350" d="M693.465-77.671h38.949V-207.5H693.465Z" transform="translate(-1703.159 2936.277)" fill="#9ad311"/>
    <g id="Group_1872" data-name="Group 1872" transform="translate(-1036.89 2589.847)">
      <g id="Group_1867" data-name="Group 1867" transform="translate(40.961 36.645)">
        <path id="Path_3346" data-name="Path 3346" d="M277.445,231.679q-.094,2.075-.3,4.151c-1.98,20.38-12.089,39.856-43.483,39.856a95.57,95.57,0,0,1-14.966-1.273,95.857,95.857,0,0,1,7.328-13.191c1.66-2.543,3.6-5.285,5.826-8.075,6.893-8.652,16.489-17.734,28.756-22.545a48.693,48.693,0,0,0-21.952,9.274c-11.953,8.683-20.03,20.978-23.56,27.064-1.333,2.3-2.017,3.709-2.017,3.709a57.873,57.873,0,0,1-1.883-11.793c-.543-12.258,3.679-28.81,27.894-41.244q1.231-.63,2.4-1.251c23.237-12.306,28.62-20.937,29.855-24.518a.484.484,0,0,1,.924.022C273.864,197.407,278.24,214.418,277.445,231.679Z" transform="translate(-211.155 -191.516)" fill="#9ad311"/>
      </g>
      <path id="Path_3347" data-name="Path 3347" d="M150.825,131.65q-1.685.906-3.463,1.818c-15.589,8-25.28,18.671-28.808,31.705-.363,1.344-.649,2.673-.868,3.982-5.207-14.533-9.6-34.547-4.8-54.047-17.8,34.29,6.692,78.661,6.692,78.661-13.029-5.008-42.674-18.416-35.939-65.866,5.069-35.721-.18-48.308-3.084-52.348a.616.616,0,0,1,.7-.944c6.917,2.411,27.767,10.343,45.089,23.824,1.387,1.078,2.755,2.194,4.088,3.348C139.891,109.947,147.756,119.9,150.825,131.65Z" transform="translate(-80.438 -74.575)" fill="#006222"/>
    </g>
    <g id="Ellipse_55" data-name="Ellipse 55" transform="translate(-1167 2552)" fill="none" stroke="#8f9e1c" stroke-width="3">
      <circle cx="177" cy="177" r="177" stroke="none"/>
      <circle cx="177" cy="177" r="175.5" fill="none"/>
    </g>
  </g>
</svg>
