<svg xmlns="http://www.w3.org/2000/svg" width="94.082" height="40.299" viewBox="0 0 94.082 40.299">
  <g id="Group_1870" data-name="Group 1870" transform="translate(-73.45 -49.454)">
    <path id="Path_3348" data-name="Path 3348" d="M24.968-212.858v1.516a6.06,6.06,0,0,0-4.807-1.968c-4.227,0-7.711,3.71-7.711,8.518s3.485,8.518,7.711,8.518a6.06,6.06,0,0,0,4.807-1.968v1.516h4.84v-16.132Zm-3.839,12a3.684,3.684,0,0,1-3.839-3.936,3.684,3.684,0,0,1,3.839-3.936,3.684,3.684,0,0,1,3.839,3.936A3.684,3.684,0,0,1,21.129-200.856Zm24.069-12v1.645a5.731,5.731,0,0,0-4.711-2.1,7.989,7.989,0,0,0-7.937,8.2,7.989,7.989,0,0,0,7.937,8.2,5.731,5.731,0,0,0,4.711-2.1v1.484c0,2.291-1.387,3.452-3.646,3.452a3.687,3.687,0,0,1-3.678-2.033l-4.13,2.388c1.484,2.646,4.291,3.9,7.647,3.9,4.291,0,8.518-2.291,8.518-7.711v-15.325Zm-3.9,11.486a3.652,3.652,0,0,1-3.9-3.743,3.652,3.652,0,0,1,3.9-3.743,3.652,3.652,0,0,1,3.9,3.743A3.652,3.652,0,0,1,41.294-201.372Zm17-8.615v-2.871h-4.84v16.132H58.3v-7.292c0-3.194,2.839-4,4.84-3.678v-5.485A4.845,4.845,0,0,0,58.3-209.987Zm7.1,13.261h4.84v-16.132H65.4Zm18.681-16.132-3.355,10.228-3.355-10.228H72.009l5.969,16.132h5.485l5.969-16.132Zm10.808,10h11.454a9.379,9.379,0,0,0,.194-1.936,8.145,8.145,0,0,0-8.2-8.518,8.271,8.271,0,0,0-8.582,8.518c0,4.807,3.42,8.518,8.937,8.518a8.186,8.186,0,0,0,7.034-3.323l-3.872-2.226a4.212,4.212,0,0,1-3.1,1.226C96.982-200.6,95.5-201.179,94.885-202.856Zm-.1-3.614a3.33,3.33,0,0,1,3.517-2.549,3.321,3.321,0,0,1,3.42,2.549Z" transform="translate(61 279.575)" fill="#fff"/>
    <g id="Group_1869" data-name="Group 1869" transform="translate(123.016 49.454)">
      <g id="Group_1867" data-name="Group 1867" transform="translate(5.09 4.553)">
        <path id="Path_3346" data-name="Path 3346" d="M219.392,196.507q-.012.258-.037.516c-.246,2.532-1.5,4.952-5.4,4.952a11.875,11.875,0,0,1-1.86-.158,11.908,11.908,0,0,1,.911-1.639c.206-.316.447-.657.724-1a8.86,8.86,0,0,1,3.573-2.8,6.05,6.05,0,0,0-2.728,1.152,11.306,11.306,0,0,0-2.927,3.363c-.166.285-.251.461-.251.461a7.191,7.191,0,0,1-.234-1.465c-.068-1.523.457-3.58,3.466-5.125q.153-.078.3-.155c2.887-1.529,3.556-2.6,3.71-3.047a.06.06,0,0,1,.115,0A16.545,16.545,0,0,1,219.392,196.507Z" transform="translate(-211.155 -191.516)" fill="#fff"/>
      </g>
      <path id="Path_3347" data-name="Path 3347" d="M89.184,81.667q-.209.113-.43.226a6.428,6.428,0,0,0-3.58,3.94c-.045.167-.081.332-.108.495a11.924,11.924,0,0,1-.6-6.716c-2.212,4.261.831,9.774.831,9.774C83.683,88.764,80,87.1,80.836,81.2c.63-4.438-.022-6-.383-6.5a.077.077,0,0,1,.087-.117,21.014,21.014,0,0,1,5.6,2.96c.172.134.342.273.508.416A7.592,7.592,0,0,1,89.184,81.667Z" transform="translate(-80.438 -74.575)" fill="#fff"/>
    </g>
  </g>
</svg>
